#!OML:ASF F:\VICON\USERDATA\INSTALL\rory3\rory3.ASF
:FULLY-SPECIFIED
:DEGREES
394
root 0.886917 15.4793 -22.8421 -156.527 -9.30936 -174.099
lowerback -5.60218 7.45748 6.23225
upperback -6.84879 9.27164 -4.0802
thorax -2.36843 4.14233 -7.25992
lowerneck -25.2868 -1.33183 -4.76237
upperneck 36.4614 -2.80666 2.85621
head 17.9411 -1.94956 1.34015
rclavicle 4.96962e-016 -2.54444e-014
rhumerus -149.565 -61.4171 127.992
rradius 14.4064
rwrist 111.638
rhand -12.2793 5.97159
rfingers 7.12502
rthumb 13.7878 -23.5515
lclavicle 4.96962e-016 -2.54444e-014
lhumerus -67.6539 -4.09286 28.8268
lradius 9.45217
lwrist -56.3788
lhand -1.08114 29.6867
lfingers 7.12502
lthumb 24.5544 58.1322
rfemur -25.3644 4.63583 30.4521
rtibia 44.7397
rfoot -37.0934 -23.4766
rtoes -4.66259
lfemur -74.2157 3.06059 -21.3318
ltibia 63.8998
lfoot -18.1839 10.953
ltoes -18.7619
395
root 0.894277 15.5349 -23.0701 -156.85 -7.3466 -174.764
lowerback -4.15856 8.46694 3.82498
upperback -8.05169 10.5886 -5.03274
thorax -4.45156 4.71887 -7.18523
lowerneck -23.5325 -1.77683 -4.47421
upperneck 36.9887 -4.36107 3.66746
head 17.9022 -2.50928 1.31245
rclavicle -2.40529e-014 -4.77083e-014
rhumerus -142.456 -63.1491 121.604
rradius 14.5558
rwrist 110.154
rhand -12.4898 6.02353
rfingers 7.12502
rthumb 13.585 -23.5132
lclavicle -2.40529e-014 -4.77083e-014
lhumerus -68.1719 -6.22861 26.964
lradius 8.53644
lwrist -52.5637
lhand -0.0824433 30.6649
lfingers 7.12502
lthumb 25.5114 58.977
rfemur -23.5678 7.49443 29.2277
rtibia 43.7538
rfoot -35.9392 -24.152
rtoes -5.28194
lfemur -73.8209 4.52639 -22.971
ltibia 60.5379
lfoot -15.7018 9.008
ltoes -18.9882
396
root 0.905819 15.5938 -23.2752 -157.088 -5.31899 -175.191
lowerback -4.83805 9.09223 1.05283
upperback -7.54434 11.4677 -5.03783
thorax -3.93258 5.33023 -5.52736
lowerneck -24.043 -2.20735 -4.90954
upperneck 37.0469 -4.94767 4.06601
head 18.1376 -2.72372 1.44324
rclavicle 2.78299e-015 -4.92986e-014
rhumerus -143.016 -64.4636 122.8
rradius 14.6273
rwrist 109.288
rhand -12.6533 6.00028
rfingers 7.12502
rthumb 13.4273 -23.547
lclavicle 2.78299e-015 -4.92986e-014
lhumerus -68.8689 -4.99726 25.925
lradius 7.63189
lwrist -48.3809
lhand -0.714586 31.9885
lfingers 7.12502
lthumb 24.9057 60.3859
rfemur -22.2724 10.2581 28.2204
rtibia 42.996
rfoot -34.7086 -24.2311
rtoes -4.66517
lfemur -73.6072 6.11531 -24.3062
ltibia 57.2005
lfoot -13.9266 7.15225
ltoes -13.2787
397
root 0.88929 15.6382 -23.4887 -157.299 -4.21051 -175.18
lowerback -5.29548 9.73832 -0.464191
upperback -7.51278 12.3384 -5.23785
thorax -3.83802 5.82459 -4.83328
lowerneck -24.3609 -2.5717 -5.00283
upperneck 37.422 -5.75116 4.56553
head 18.5242 -2.98662 1.5088
rclavicle -2.1429e-013 -4.21423e-014
rhumerus -137.382 -66.8644 117.559
rradius 14.5981
rwrist 106.265
rhand -12.6948 5.81506
rfingers 7.12502
rthumb 13.3874 -23.7348
lclavicle -2.1429e-013 -4.21423e-014
lhumerus -68.9495 -4.51723 24.7773
lradius 6.05278
lwrist -43.6592
lhand -1.71571 33.7268
lfingers 7.12502
lthumb 23.946 62.2535
rfemur -20.9414 11.1298 27.8477
rtibia 42.3184
rfoot -33.7441 -22.7173
rtoes -2.84487
lfemur -73.5674 7.29045 -25.237
ltibia 54.2277
lfoot -12.5264 5.99588
ltoes -6.62688
398
root 0.824507 15.6846 -23.7127 -157.357 -4.21205 -175.444
lowerback -5.53631 10.1961 -1.19145
upperback -8.15213 12.8329 -5.77863
thorax -4.38737 6.03374 -5.0289
lowerneck -23.7861 -2.8715 -5.43109
upperneck 37.9688 -6.62873 5.37685
head 18.8351 -3.33984 1.76713
rclavicle -1.48492e-013 7.87187e-014
rhumerus -136.162 -66.1866 117.24
rradius 14.8958
rwrist 107.85
rhand -13.1175 6.41283
rfingers 7.12502
rthumb 12.98 -23.1634
lclavicle -1.48492e-013 7.87187e-014
lhumerus -69.3288 -5.83113 23.0233
lradius 5.13171
lwrist -39.0622
lhand -2.22142 34.8015
lfingers 7.12502
lthumb 23.461 63.3911
rfemur -19.6868 9.19167 27.243
rtibia 41.6231
rfoot -32.3505 -19.4406
rtoes -0.0480691
lfemur -73.5619 7.64423 -26.7096
ltibia 51.8053
lfoot -11.3673 5.83419
ltoes -2.88735
399
root 0.81516 15.7032 -23.9534 -157.602 -3.61603 -174.476
lowerback -7.96213 10.4995 -1.99424
upperback -7.3292 13.4352 -5.33698
thorax -2.44114 6.42804 -3.59
lowerneck -23.496 -3.07963 -4.51279
upperneck 37.3232 -7.11435 5.0812
head 18.3608 -3.41406 1.35731
rclavicle -6.04305e-014 -3.81667e-014
rhumerus -146.334 -63.1228 128.326
rradius 15.3845
rwrist 112.886
rhand -13.659 7.07582
rfingers 7.12502
rthumb 12.4579 -22.5329
lclavicle -6.04305e-014 -3.81667e-014
lhumerus -71.1791 -5.82955 20.9809
lradius 7.28778
lwrist -34.7671
lhand -0.947741 35.2134
lfingers 7.12502
lthumb 24.6823 63.6415
rfemur -18.2991 10.0106 28.0385
rtibia 40.8631
rfoot -30.1332 -19.2224
rtoes 0.321779
lfemur -73.8628 9.17367 -26.8471
ltibia 50.1696
lfoot -10.6149 6.83108
ltoes -0.640603
400
root 0.801153 15.7106 -24.1985 -157.885 -3.23228 -173.79
lowerback -8.15933 11.0421 -2.77068
upperback -8.4402 13.9945 -5.71146
thorax -3.58526 6.65555 -3.66031
lowerneck -22.1423 -3.09499 -4.23084
upperneck 37.9525 -8.10904 6.03853
head 18.5116 -3.75167 1.53489
rclavicle -9.14409e-014 -4.92986e-014
rhumerus -137.583 -65.2945 119.364
rradius 15.3672
rwrist 110.462
rhand -13.6923 7.06929
rfingers 7.12502
rthumb 12.4258 -22.5414
lclavicle -9.14409e-014 -4.92986e-014
lhumerus -72.0094 -8.11152 18.3442
lradius 7.62666
lwrist -30.8637
lhand -0.896273 35.832
lfingers 7.12502
lthumb 24.7316 64.2533
rfemur -16.8438 9.54809 28.5244
rtibia 40.0634
rfoot -29.0881 -17.6569
rtoes -3.13591
lfemur -74.2239 10.5913 -27.5253
ltibia 49.3423
lfoot -9.70605 9.61538
ltoes -0.223297
401
root 0.786907 15.6995 -24.4485 -158.412 -2.85991 -173.187
lowerback -8.90045 11.3159 -3.79222
upperback -8.98757 14.3101 -5.718
thorax -4.01642 6.81312 -3.09275
lowerneck -20.3511 -2.95392 -2.63467
upperneck 37.9394 -8.72254 5.82624
head 17.9809 -3.90906 1.03553
rclavicle 2.16675e-014 -2.22639e-014
rhumerus -129.382 -67.1485 110.834
rradius 15.287
rwrist 108.027
rhand -13.7559 6.99957
rfingers 7.12502
rthumb 12.3645 -22.6148
lclavicle 2.16675e-014 -2.22639e-014
lhumerus -73.7749 -10.8737 15.2665
lradius 10.0793
lwrist -27.5316
lhand 0.0512526 35.2714
lfingers 7.12502
lthumb 25.6395 63.565
rfemur -15.1303 9.02501 28.9714
rtibia 39.3756
rfoot -28.5874 -15.8789
rtoes -7.0692
lfemur -74.5383 12.1283 -28.6115
ltibia 49.2918
lfoot -7.94103 14.2683
ltoes -1.99302
402
root 0.718284 15.679 -24.6758 -159.083 -3.73548 -171.442
lowerback -9.6838 11.5624 -2.4967
upperback -9.14117 14.6086 -5.39159
thorax -3.50747 6.91764 -3.22417
lowerneck -19.6559 -3.07522 -2.28594
upperneck 38.0677 -9.30188 6.07494
head 17.9199 -4.10983 0.970608
rclavicle 3.17062e-014 7.15625e-014
rhumerus -122.757 -67.9122 104.309
rradius 15.2556
rwrist 106.196
rhand -13.8306 7.25116
rfingers 7.12502
rthumb 12.2924 -22.3675
lclavicle 3.17062e-014 7.15625e-014
lhumerus -73.4559 -9.9815 11.6269
lradius 8.75885
lwrist -27.0979
lhand -0.742985 35.3241
lfingers 7.12502
lthumb 24.8785 63.7252
rfemur -13.4221 5.88489 30.5123
rtibia 38.6372
rfoot -26.6011 -12.9033
rtoes -10.2518
lfemur -75.0857 13.06 -28.4478
ltibia 50.3414
lfoot -7.63842 18.0754
ltoes 2.91923
403
root 0.714673 15.6539 -24.97 -159.507 -2.93773 -170.57
lowerback -12.8865 11.9175 -3.63596
upperback -7.99225 15.4294 -4.85501
thorax -1.01923 7.39932 -1.26663
lowerneck -20.122 -3.44333 -1.87431
upperneck 37.6422 -9.78585 5.92524
head 17.7968 -4.21248 0.724654
rclavicle 3.75703e-014 -2.22639e-014
rhumerus -117.172 -68.7559 98.633
rradius 15.2388
rwrist 102.88
rhand -13.8031 7.53281
rfingers 7.12502
rthumb 12.319 -22.0843
lclavicle 3.75703e-014 -2.22639e-014
lhumerus -73.3815 -7.70177 8.3904
lradius 8.52337
lwrist -27.4084
lhand 0.187847 35.6925
lfingers 7.12502
lthumb 25.7703 63.9673
rfemur -11.9426 5.31907 30.897
rtibia 38.4102
rfoot -23.5736 -10.5597
rtoes -7.88494
lfemur -75.7135 15.3125 -29.6295
ltibia 51.7434
lfoot -7.86015 21.8995
ltoes 10.6967
